<svg width="27" height="27" viewBox="0 0 14 15" fill="none" xmlns="http://www.w3.org/2000/svg">
<path d="M7.5 7.5C8.60457 7.5 9.5 6.60457 9.5 5.5C9.5 4.39543 8.60457 3.5 7.5 3.5C6.39543 3.5 5.5 4.39543 5.5 5.5C5.5 6.60457 6.39543 7.5 7.5 7.5Z" stroke="#fff" stroke-linecap="round" stroke-linejoin="round"/>
<path d="M0.5 3.5H1.5V2.5C1.5 1.96957 1.71071 1.46086 2.08579 1.08579C2.46086 0.710714 2.96957 0.5 3.5 0.5H11.5C12.0304 0.5 12.5391 0.710714 12.9142 1.08579C13.2893 1.46086 13.5 1.96957 13.5 2.5V12.5C13.5 13.0304 13.2893 13.5391 12.9142 13.9142C12.5391 14.2893 12.0304 14.5 11.5 14.5H3.5C2.96957 14.5 2.46086 14.2893 2.08579 13.9142C1.71071 13.5391 1.5 13.0304 1.5 12.5V11.5H0.5M0.5 7.5H1.5M0.5 5.5H1.5M0.5 9.5H1.5" stroke="#fff" stroke-linecap="round" stroke-linejoin="round"/>
<path fill-rule="evenodd" clip-rule="evenodd" d="M10.5 10.5V9.5C10.5 8.96957 10.2893 8.46086 9.91421 8.08579C9.53914 7.71071 9.03043 7.5 8.5 7.5H6.5C5.96957 7.5 5.46086 7.71071 5.08579 8.08579C4.71071 8.46086 4.5 8.96957 4.5 9.5V10.5C4.5 10.7652 4.60536 11.0196 4.79289 11.2071C4.98043 11.3946 5.23478 11.5 5.5 11.5H9.5C9.76522 11.5 10.0196 11.3946 10.2071 11.2071C10.3946 11.0196 10.5 10.7652 10.5 10.5Z" stroke="#fff" stroke-linecap="round" stroke-linejoin="round"/>
</svg>
