<svg width="18" height="17" viewBox="0 0 18 17" fill="currentColor" xmlns="http://www.w3.org/2000/svg">
<path fill-rule="evenodd" clip-rule="evenodd" d="M12.9375 1.12782C12.7159 1.12782 12.4965 1.17147 12.2917 1.25627C12.087 1.34108 11.901 1.46538 11.7443 1.62208C11.5876 1.77878 11.4633 1.9648 11.3785 2.16954C11.2936 2.37428 11.25 2.59371 11.25 2.81532C11.25 3.03693 11.2936 3.25636 11.3785 3.4611C11.4633 3.66584 11.5876 3.85186 11.7443 4.00856C11.901 4.16526 12.087 4.28956 12.2917 4.37437C12.4965 4.45917 12.7159 4.50282 12.9375 4.50282C13.3851 4.50282 13.8143 4.32503 14.1307 4.00856C14.4472 3.6921 14.625 3.26287 14.625 2.81532C14.625 2.36777 14.4472 1.93854 14.1307 1.62208C13.8143 1.30561 13.3851 1.12782 12.9375 1.12782ZM10.1813 2.25282C10.3104 1.61703 10.6553 1.04543 11.1576 0.634857C11.6599 0.224287 12.2887 0 12.9375 0C13.5863 0 14.2151 0.224287 14.7174 0.634857C15.2197 1.04543 15.5646 1.61703 15.6937 2.25282H18V3.37782H15.6937C15.5646 4.01361 15.2197 4.58521 14.7174 4.99578C14.2151 5.40635 13.5863 5.63064 12.9375 5.63064C12.2887 5.63064 11.6599 5.40635 11.1576 4.99578C10.6553 4.58521 10.3104 4.01361 10.1813 3.37782H0V2.25282H10.1813ZM5.0625 6.75282C4.61495 6.75282 4.18573 6.93061 3.86926 7.24708C3.55279 7.56355 3.375 7.99277 3.375 8.44032C3.375 8.88787 3.55279 9.3171 3.86926 9.63356C4.18573 9.95003 4.61495 10.1278 5.0625 10.1278C5.51005 10.1278 5.93928 9.95003 6.25574 9.63356C6.57221 9.3171 6.75 8.88787 6.75 8.44032C6.75 7.99277 6.57221 7.56355 6.25574 7.24708C5.93928 6.93061 5.51005 6.75282 5.0625 6.75282ZM2.30625 7.87782C2.43535 7.24203 2.78029 6.67043 3.2826 6.25986C3.78492 5.84929 4.41374 5.625 5.0625 5.625C5.71126 5.625 6.34008 5.84929 6.8424 6.25986C7.34471 6.67043 7.68965 7.24203 7.81875 7.87782H18V9.00282H7.81875C7.68965 9.63861 7.34471 10.2102 6.8424 10.6208C6.34008 11.0314 5.71126 11.2556 5.0625 11.2556C4.41374 11.2556 3.78492 11.0314 3.2826 10.6208C2.78029 10.2102 2.43535 9.63861 2.30625 9.00282H0V7.87782H2.30625ZM12.9375 12.3778C12.4899 12.3778 12.0607 12.5556 11.7443 12.8721C11.4278 13.1885 11.25 13.6178 11.25 14.0653C11.25 14.5129 11.4278 14.9421 11.7443 15.2586C12.0607 15.575 12.4899 15.7528 12.9375 15.7528C13.3851 15.7528 13.8143 15.575 14.1307 15.2586C14.4472 14.9421 14.625 14.5129 14.625 14.0653C14.625 13.6178 14.4472 13.1885 14.1307 12.8721C13.8143 12.5556 13.3851 12.3778 12.9375 12.3778ZM10.1813 13.5028C10.3104 12.867 10.6553 12.2954 11.1576 11.8849C11.6599 11.4743 12.2887 11.25 12.9375 11.25C13.5863 11.25 14.2151 11.4743 14.7174 11.8849C15.2197 12.2954 15.5646 12.867 15.6937 13.5028H18V14.6278H15.6937C15.5646 15.2636 15.2197 15.8352 14.7174 16.2458C14.2151 16.6564 13.5863 16.8806 12.9375 16.8806C12.2887 16.8806 11.6599 16.6564 11.1576 16.2458C10.6553 15.8352 10.3104 15.2636 10.1813 14.6278H0V13.5028H10.1813Z"/>
</svg>
