<svg xmlns="http://www.w3.org/2000/svg" data-name="Layer 1" viewBox="0 0 64 64" width="30" height="30"><path d="M39.31 3.54A5.28 5.28 0 0 0 34.71 1h-5.42a5.28 5.28 0 0 0-4.6 2.54 4.76 4.76 0 0 0-.11 4.72l.56 1.05A2 2 0 0 0 25 10a2 2 0 0 0 1 1.73v2.92a3 3 0 0 0 1.89 2.78l.11.05V18h-4a5 5 0 0 0-5 5v4a1 1 0 0 0 1 1h24a1 1 0 0 0 1-1v-4a5 5 0 0 0-5-5h-4v-.52l.12-.05A3 3 0 0 0 38 14.65v-2.92A2 2 0 0 0 39 10a2 2 0 0 0-.14-.69l.56-1.05a4.76 4.76 0 0 0-.11-4.72zM40 20a3 3 0 0 1 3 3v3H21v-3a3 3 0 0 1 3-3h4.13a4 4 0 0 0 7.74 0zm-10-1v-.72l.89.35a2.91 2.91 0 0 0 2.22 0l.89-.35V19a2 2 0 0 1-4 0zm6-8v3.65a1 1 0 0 1-.63.92l-3 1.2a1 1 0 0 1-.74 0l-3-1.2a1 1 0 0 1-.63-.92V11a1 1 0 0 0-1-1 1 1 0 0 0 1-.68l.71-2.13 3.1.78a1 1 0 0 0 .48 0l3.1-.78.71 2.13a1 1 0 0 0 .9.68 1 1 0 0 0-1 1zm1.66-3.68-.1.19L37 5.68A1 1 0 0 0 35.76 5L32 6l-3.76-1a1 1 0 0 0-1.19.65l-.61 1.83-.1-.19a2.73 2.73 0 0 1 .07-2.75A3.29 3.29 0 0 1 29.29 3h5.42a3.29 3.29 0 0 1 2.88 1.57 2.73 2.73 0 0 1 .07 2.75zM4 48a4 4 0 1 0 4-4 4 4 0 0 0-4 4zm6 0a2 2 0 1 1-2-2 2 2 0 0 1 2 2zM2 63h12a1 1 0 0 0 1-1v-4a5 5 0 0 0-5-5H6a5 5 0 0 0-5 5v4a1 1 0 0 0 1 1zm1-5a3 3 0 0 1 3-3h4a3 3 0 0 1 3 3v3H3zm33-10a4 4 0 1 0-4 4 4 4 0 0 0 4-4zm-6 0a2 2 0 1 1 2 2 2 2 0 0 1-2-2zm-5 10v4a1 1 0 0 0 1 1h12a1 1 0 0 0 1-1v-4a5 5 0 0 0-5-5h-4a5 5 0 0 0-5 5zm2 0a3 3 0 0 1 3-3h4a3 3 0 0 1 3 3v3H27zm25-10a4 4 0 1 0 4-4 4 4 0 0 0-4 4zm6 0a2 2 0 1 1-2-2 2 2 0 0 1 2 2zm0 5h-4a5 5 0 0 0-5 5v4a1 1 0 0 0 1 1h12a1 1 0 0 0 1-1v-4a5 5 0 0 0-5-5zm3 8H51v-3a3 3 0 0 1 3-3h4a3 3 0 0 1 3 3zm-5-29H33v-2h-2v2H8a1 1 0 0 0-1 1v9h2v-8h22v8h2v-8h22v8h2v-9a1 1 0 0 0-1-1z" fill="#fff" class="color000 svgShape"></path></svg>