<?xml version="1.0" encoding="UTF-8"?>
<svg xmlns="http://www.w3.org/2000/svg" xmlns:xlink="http://www.w3.org/1999/xlink" width="30px" height="30px" viewBox="0 0 30 30" version="1.1">
<g id="surface1">
<path style=" stroke:none;fill-rule:nonzero;fill:rgb(255,255,255);fill-opacity:1;" d="M 14.355469 0.09375 C 13.960938 0.199219 13.59375 0.410156 13.253906 0.726562 L 12.992188 0.96875 L 11.84375 0.996094 C 10.769531 1.023438 10.679688 1.03125 10.46875 1.160156 C 10.351562 1.234375 10.226562 1.347656 10.195312 1.414062 C 10.136719 1.515625 10.023438 1.523438 7.117188 1.523438 C 4.171875 1.523438 4.09375 1.523438 3.765625 1.652344 C 3.304688 1.820312 2.820312 2.308594 2.648438 2.773438 L 2.519531 3.109375 L 2.53125 15.835938 L 2.546875 28.5625 L 2.683594 28.835938 C 2.898438 29.273438 3.195312 29.566406 3.621094 29.777344 L 4.015625 29.96875 L 25.984375 29.96875 L 26.378906 29.777344 C 26.804688 29.566406 27.101562 29.273438 27.316406 28.835938 L 27.453125 28.5625 L 27.46875 15.835938 L 27.480469 3.109375 L 27.351562 2.773438 C 27.179688 2.308594 26.695312 1.820312 26.234375 1.652344 C 25.90625 1.523438 25.828125 1.523438 22.886719 1.523438 L 19.875 1.523438 L 19.789062 1.382812 C 19.734375 1.304688 19.578125 1.1875 19.4375 1.117188 C 19.207031 1.007812 19.078125 0.996094 18.171875 0.996094 C 17.070312 0.996094 17.046875 0.992188 16.65625 0.640625 C 16.054688 0.0859375 15.164062 -0.125 14.355469 0.09375 Z M 15.667969 1.183594 C 15.804688 1.25 16.019531 1.40625 16.148438 1.523438 C 16.609375 1.945312 16.664062 1.960938 17.890625 1.980469 L 18.984375 2.003906 L 18.984375 3.984375 L 11.015625 3.984375 L 11.015625 2.003906 L 12.117188 1.980469 C 13.335938 1.960938 13.390625 1.945312 13.851562 1.523438 C 14.425781 1 15.0625 0.878906 15.667969 1.183594 Z M 10.007812 3 L 9.992188 3.484375 L 5.117188 3.546875 L 4.910156 3.703125 C 4.476562 4.039062 4.511719 2.960938 4.511719 15.765625 L 4.511719 27.265625 L 4.65625 27.515625 C 4.75 27.679688 4.886719 27.804688 5.054688 27.882812 L 5.3125 28.007812 L 15.070312 27.996094 L 24.820312 27.976562 L 25.039062 27.832031 C 25.15625 27.757812 25.300781 27.59375 25.367188 27.476562 C 25.488281 27.257812 25.488281 27.25 25.488281 15.761719 C 25.488281 2.960938 25.523438 4.039062 25.089844 3.703125 L 24.882812 3.546875 L 20.007812 3.484375 L 19.976562 2.515625 L 22.933594 2.53125 C 25.816406 2.546875 25.890625 2.554688 26.050781 2.671875 C 26.140625 2.734375 26.265625 2.867188 26.332031 2.953125 L 26.453125 3.109375 L 26.484375 28.273438 L 26.351562 28.5 C 26.265625 28.648438 26.121094 28.78125 25.960938 28.867188 L 25.703125 29.003906 L 4.296875 29.003906 L 4.039062 28.867188 C 3.878906 28.78125 3.734375 28.648438 3.648438 28.5 L 3.515625 28.273438 L 3.515625 15.78125 C 3.515625 7.070312 3.53125 3.242188 3.578125 3.125 C 3.664062 2.90625 3.855469 2.695312 4.070312 2.601562 C 4.210938 2.542969 4.859375 2.523438 7.136719 2.519531 L 10.023438 2.519531 Z M 10.273438 4.664062 C 10.523438 4.984375 10.429688 4.980469 15 4.980469 C 19.570312 4.980469 19.476562 4.984375 19.726562 4.664062 L 19.851562 4.511719 L 24.492188 4.511719 L 24.492188 27.011719 L 5.507812 27.011719 L 5.507812 4.511719 L 10.148438 4.511719 Z M 10.273438 4.664062 "/>
<path style=" stroke:none;fill-rule:nonzero;fill:rgb(255,255,255);fill-opacity:1;" d="M 14.171875 2.164062 C 13.957031 2.382812 13.945312 2.640625 14.148438 2.84375 C 14.285156 2.984375 14.332031 2.988281 14.941406 2.988281 C 15.796875 2.988281 15.996094 2.894531 15.996094 2.476562 C 15.996094 2.398438 15.921875 2.261719 15.828125 2.164062 C 15.65625 1.992188 15.644531 1.992188 15 1.992188 C 14.355469 1.992188 14.34375 1.992188 14.171875 2.164062 Z M 14.171875 2.164062 "/>
<path style=" stroke:none;fill-rule:nonzero;fill:rgb(255,255,255);fill-opacity:1;" d="M 8.144531 6.058594 C 7.992188 6.09375 7.78125 6.1875 7.664062 6.257812 C 7.414062 6.414062 7.109375 6.84375 7.046875 7.140625 C 7.019531 7.257812 7 8.132812 7 9.085938 L 7 10.816406 L 7.179688 11.167969 C 7.371094 11.542969 7.734375 11.84375 8.132812 11.953125 C 8.257812 11.988281 9.058594 12.011719 9.996094 12.011719 C 11.953125 12.011719 12.105469 11.984375 12.539062 11.542969 C 12.90625 11.179688 13.007812 10.851562 13.007812 10.039062 C 13.007812 9.40625 12.929688 9.132812 12.742188 9.058594 C 12.5625 8.988281 12.316406 9.023438 12.179688 9.132812 C 12.054688 9.242188 12.039062 9.296875 12.011719 9.984375 C 11.96875 11.054688 12.109375 10.980469 10.117188 11.003906 C 9.246094 11.015625 8.46875 11.003906 8.390625 10.984375 C 8.320312 10.96875 8.210938 10.90625 8.144531 10.839844 C 8.03125 10.726562 8.027344 10.632812 8.027344 9.007812 L 8.027344 7.28125 L 8.179688 7.140625 C 8.328125 7.007812 8.355469 7 9.453125 6.984375 C 10.070312 6.976562 10.632812 6.953125 10.710938 6.945312 C 10.789062 6.925781 10.882812 6.828125 10.9375 6.710938 C 11.070312 6.445312 10.960938 6.171875 10.6875 6.058594 C 10.4375 5.953125 8.53125 5.953125 8.144531 6.058594 Z M 8.144531 6.058594 "/>
<path style=" stroke:none;fill-rule:nonzero;fill:rgb(255,255,255);fill-opacity:1;" d="M 11.367188 7.414062 C 10.007812 8.765625 9.976562 8.789062 9.878906 8.679688 C 9.574219 8.335938 9.03125 8.554688 9.023438 9.015625 C 9.023438 9.179688 9.085938 9.273438 9.398438 9.597656 C 10.015625 10.230469 9.890625 10.296875 11.835938 8.351562 C 13.28125 6.902344 13.476562 6.6875 13.476562 6.527344 C 13.476562 6.234375 13.28125 6.035156 12.992188 6.035156 C 12.757812 6.035156 12.726562 6.058594 11.367188 7.414062 Z M 11.367188 7.414062 "/>
<path style=" stroke:none;fill-rule:nonzero;fill:rgb(255,255,255);fill-opacity:1;" d="M 15.171875 7.671875 C 14.988281 7.851562 14.960938 7.992188 15.0625 8.21875 C 15.171875 8.453125 15.351562 8.496094 16.289062 8.496094 C 17.121094 8.496094 17.167969 8.492188 17.320312 8.355469 C 17.546875 8.164062 17.546875 7.835938 17.320312 7.640625 C 17.167969 7.507812 17.125 7.5 16.253906 7.5 L 15.339844 7.5 Z M 15.171875 7.671875 "/>
<path style=" stroke:none;fill-rule:nonzero;fill:rgb(255,255,255);fill-opacity:1;" d="M 15.171875 9.664062 C 15.078125 9.757812 15 9.890625 15 9.960938 C 15 10.132812 15.152344 10.40625 15.265625 10.453125 C 15.316406 10.46875 17.003906 10.488281 19.007812 10.488281 C 22.558594 10.488281 22.664062 10.484375 22.804688 10.371094 C 22.886719 10.304688 22.96875 10.1875 22.980469 10.113281 C 23.023438 9.902344 22.882812 9.617188 22.703125 9.550781 C 22.609375 9.515625 21.1875 9.492188 18.949219 9.492188 L 15.339844 9.492188 Z M 15.171875 9.664062 "/>
<path style=" stroke:none;fill-rule:nonzero;fill:rgb(255,255,255);fill-opacity:1;" d="M 7.882812 13.148438 C 7.558594 13.296875 7.25 13.609375 7.09375 13.9375 C 6.953125 14.257812 6.953125 17.734375 7.09375 18.054688 C 7.25 18.382812 7.558594 18.695312 7.882812 18.84375 C 8.167969 18.976562 8.210938 18.984375 9.992188 18.976562 C 11.3125 18.976562 11.867188 18.960938 12.015625 18.902344 C 12.34375 18.785156 12.621094 18.546875 12.808594 18.210938 C 12.96875 17.917969 12.976562 17.851562 12.996094 17.125 L 13.019531 16.347656 L 12.84375 16.171875 C 12.65625 15.984375 12.492188 15.953125 12.289062 16.066406 C 12.046875 16.195312 12.015625 16.296875 12.011719 16.976562 C 12.011719 17.589844 12.007812 17.636719 11.859375 17.804688 L 11.707031 17.988281 L 10.019531 17.988281 C 8.402344 17.988281 8.332031 17.984375 8.179688 17.867188 L 8.027344 17.75 L 8.027344 14.289062 L 8.171875 14.148438 C 8.3125 14.003906 8.320312 14.003906 9.484375 14.003906 C 10.632812 14.003906 10.65625 14.003906 10.816406 13.863281 C 11.046875 13.671875 11.046875 13.34375 10.816406 13.148438 C 10.65625 13.007812 10.640625 13.007812 9.414062 13.007812 C 8.238281 13.007812 8.15625 13.015625 7.882812 13.148438 Z M 7.882812 13.148438 "/>
<path style=" stroke:none;fill-rule:nonzero;fill:rgb(255,255,255);fill-opacity:1;" d="M 11.421875 14.390625 L 10.03125 15.78125 L 9.855469 15.648438 C 9.484375 15.390625 9.023438 15.59375 9.023438 16.015625 C 9.023438 16.183594 9.082031 16.273438 9.429688 16.601562 C 10.066406 17.21875 9.921875 17.289062 11.847656 15.363281 C 13.40625 13.8125 13.476562 13.726562 13.476562 13.515625 C 13.476562 13.230469 13.265625 13.007812 12.996094 13.007812 C 12.828125 13.007812 12.664062 13.15625 11.421875 14.390625 Z M 11.421875 14.390625 "/>
<path style=" stroke:none;fill-rule:nonzero;fill:rgb(255,255,255);fill-opacity:1;" d="M 15.292969 14.578125 C 15.054688 14.695312 14.953125 14.921875 15.035156 15.15625 C 15.128906 15.4375 15.40625 15.527344 16.203125 15.527344 C 17.097656 15.527344 17.320312 15.46875 17.445312 15.199219 C 17.539062 15.015625 17.539062 14.984375 17.445312 14.800781 C 17.320312 14.53125 17.097656 14.472656 16.203125 14.472656 C 15.648438 14.472656 15.457031 14.496094 15.292969 14.578125 Z M 15.292969 14.578125 "/>
<path style=" stroke:none;fill-rule:nonzero;fill:rgb(255,255,255);fill-opacity:1;" d="M 15.148438 16.671875 C 14.960938 16.851562 14.960938 17.109375 15.140625 17.328125 L 15.28125 17.492188 L 18.820312 17.507812 C 20.757812 17.519531 22.441406 17.507812 22.546875 17.492188 C 22.820312 17.4375 22.96875 17.273438 22.96875 17.003906 C 22.96875 16.84375 22.929688 16.742188 22.835938 16.652344 L 22.699219 16.523438 L 15.289062 16.523438 Z M 15.148438 16.671875 "/>
<path style=" stroke:none;fill-rule:nonzero;fill:rgb(255,255,255);fill-opacity:1;" d="M 8.195312 20.023438 C 7.910156 20.070312 7.421875 20.40625 7.253906 20.683594 C 7 21.09375 6.960938 21.46875 6.984375 23.226562 C 7 24.585938 7.019531 24.851562 7.109375 25.042969 C 7.273438 25.414062 7.464844 25.625 7.796875 25.8125 L 8.117188 25.984375 L 9.859375 26.003906 C 11.941406 26.027344 12.085938 26.003906 12.539062 25.546875 C 12.929688 25.160156 13.023438 24.828125 12.996094 23.929688 C 12.976562 23.296875 12.96875 23.242188 12.835938 23.140625 C 12.625 22.96875 12.289062 22.992188 12.132812 23.179688 C 12.03125 23.3125 12.011719 23.421875 12.011719 23.941406 C 12.011719 25.039062 12.046875 25.019531 10.03125 25.019531 C 8.46875 25.019531 8.191406 24.984375 8.085938 24.785156 C 8.050781 24.71875 8.027344 23.976562 8.027344 22.980469 L 8.027344 21.289062 L 8.179688 21.148438 C 8.328125 21.007812 8.355469 21.007812 9.480469 20.988281 C 10.183594 20.984375 10.6875 20.945312 10.765625 20.90625 C 10.957031 20.804688 11.046875 20.546875 10.957031 20.332031 C 10.820312 20.015625 10.675781 19.980469 9.453125 19.984375 C 8.847656 19.992188 8.28125 20.007812 8.195312 20.023438 Z M 8.195312 20.023438 "/>
<path style=" stroke:none;fill-rule:nonzero;fill:rgb(255,255,255);fill-opacity:1;" d="M 12.796875 20.070312 C 12.703125 20.109375 12.035156 20.734375 11.3125 21.460938 L 9.996094 22.789062 L 9.828125 22.640625 C 9.632812 22.476562 9.5 22.464844 9.265625 22.585938 C 9.078125 22.679688 9.023438 22.78125 9.023438 23.03125 C 9.023438 23.167969 9.101562 23.289062 9.335938 23.539062 C 9.6875 23.914062 9.945312 24.046875 10.148438 23.96875 C 10.226562 23.941406 11.003906 23.195312 11.882812 22.3125 C 13.367188 20.820312 13.476562 20.695312 13.476562 20.5 C 13.476562 20.148438 13.125 19.929688 12.796875 20.070312 Z M 12.796875 20.070312 "/>
<path style=" stroke:none;fill-rule:nonzero;fill:rgb(255,255,255);fill-opacity:1;" d="M 15.257812 21.574219 C 15.117188 21.640625 15 21.855469 15 22.039062 C 15 22.101562 15.078125 22.234375 15.171875 22.328125 L 15.339844 22.5 L 16.253906 22.5 C 17.125 22.5 17.167969 22.492188 17.320312 22.359375 C 17.546875 22.164062 17.546875 21.835938 17.320312 21.644531 C 17.167969 21.507812 17.125 21.503906 16.273438 21.507812 C 15.78125 21.507812 15.320312 21.539062 15.257812 21.574219 Z M 15.257812 21.574219 "/>
<path style=" stroke:none;fill-rule:nonzero;fill:rgb(255,255,255);fill-opacity:1;" d="M 15.171875 23.664062 C 14.988281 23.847656 14.960938 24.011719 15.070312 24.21875 C 15.21875 24.5 15.117188 24.484375 18.996094 24.492188 L 22.671875 24.492188 L 22.816406 24.359375 C 23.039062 24.15625 23.046875 23.859375 22.820312 23.640625 L 22.679688 23.496094 L 15.339844 23.496094 Z M 15.171875 23.664062 "/>
</g>
</svg>
