<?xml version="1.0" encoding="UTF-8"?>
<svg xmlns="http://www.w3.org/2000/svg" xmlns:xlink="http://www.w3.org/1999/xlink" width="30px" height="30px" viewBox="0 0 30 30" version="1.1">
<g id="surface1">
<path style=" stroke:none;fill-rule:nonzero;fill:rgb(255,255,255);fill-opacity:1;" d="M 4.65625 1.394531 C 4.40625 1.511719 4.066406 1.859375 3.976562 2.09375 C 3.949219 2.167969 3.925781 2.519531 3.925781 2.871094 L 3.925781 3.507812 L 2.445312 3.527344 L 0.953125 3.546875 L 0.667969 3.71875 C 0.492188 3.832031 0.316406 4.007812 0.203125 4.183594 L 0.03125 4.46875 L 0.03125 6.203125 C 0.03125 8.117188 0.03125 8.101562 0.414062 8.492188 C 0.664062 8.734375 0.882812 8.847656 1.234375 8.890625 L 1.523438 8.921875 L 1.523438 18.246094 C 1.523438 24.8125 1.539062 27.640625 1.585938 27.804688 C 1.671875 28.109375 2.117188 28.539062 2.4375 28.640625 C 2.789062 28.746094 27.210938 28.746094 27.5625 28.640625 C 27.878906 28.546875 28.328125 28.09375 28.414062 27.796875 C 28.460938 27.640625 28.476562 24.726562 28.476562 18.246094 L 28.476562 8.921875 L 28.765625 8.890625 C 29.117188 8.847656 29.335938 8.734375 29.585938 8.492188 C 29.96875 8.101562 29.96875 8.117188 29.96875 6.203125 L 29.96875 4.46875 L 29.796875 4.183594 C 29.683594 4.007812 29.507812 3.832031 29.332031 3.71875 L 29.046875 3.546875 L 27.554688 3.527344 L 26.074219 3.507812 L 26.074219 2.867188 C 26.074219 2.351562 26.050781 2.179688 25.960938 2.003906 C 25.5 1.089844 24.28125 1.054688 23.789062 1.933594 C 23.664062 2.164062 23.640625 2.285156 23.625 2.851562 L 23.601562 3.515625 L 22.101562 3.515625 L 22.078125 2.851562 C 22.0625 2.285156 22.039062 2.164062 21.914062 1.933594 C 21.5 1.195312 20.519531 1.078125 19.953125 1.703125 C 19.65625 2.027344 19.628906 2.144531 19.628906 2.875 L 19.628906 3.515625 L 11.851562 3.515625 L 11.730469 3.648438 C 11.546875 3.84375 11.5625 4.117188 11.753906 4.273438 C 11.90625 4.394531 11.953125 4.394531 15.765625 4.394531 L 19.628906 4.394531 L 19.628906 5.039062 C 19.628906 5.5625 19.652344 5.730469 19.742188 5.90625 C 20.117188 6.640625 20.953125 6.832031 21.609375 6.34375 C 21.945312 6.09375 22.054688 5.800781 22.078125 5.050781 L 22.101562 4.394531 L 23.601562 4.394531 L 23.625 5.050781 C 23.648438 5.800781 23.757812 6.09375 24.09375 6.34375 C 24.75 6.832031 25.585938 6.640625 25.960938 5.90625 C 26.050781 5.730469 26.074219 5.5625 26.074219 5.039062 L 26.074219 4.394531 L 28.78125 4.394531 L 28.953125 4.5625 L 29.121094 4.734375 L 29.121094 7.6875 L 28.953125 7.859375 L 28.78125 8.027344 L 1.21875 8.027344 L 1.046875 7.859375 L 0.878906 7.6875 L 0.878906 6.246094 C 0.878906 5.320312 0.902344 4.757812 0.945312 4.671875 C 1.054688 4.417969 1.210938 4.394531 2.609375 4.394531 L 3.925781 4.394531 L 3.925781 5.039062 C 3.925781 5.5625 3.949219 5.730469 4.039062 5.90625 C 4.414062 6.640625 5.25 6.832031 5.90625 6.34375 C 6.242188 6.09375 6.351562 5.800781 6.375 5.050781 L 6.398438 4.394531 L 7.898438 4.394531 L 7.921875 5.050781 C 7.945312 5.800781 8.054688 6.09375 8.390625 6.34375 C 9.046875 6.832031 9.882812 6.640625 10.257812 5.90625 C 10.359375 5.707031 10.371094 5.542969 10.371094 3.953125 C 10.371094 2.367188 10.359375 2.203125 10.257812 2.003906 C 9.796875 1.089844 8.578125 1.054688 8.085938 1.933594 C 7.960938 2.164062 7.9375 2.285156 7.921875 2.851562 L 7.898438 3.515625 L 6.398438 3.515625 L 6.375 2.851562 C 6.359375 2.285156 6.335938 2.164062 6.210938 1.933594 C 5.90625 1.390625 5.195312 1.140625 4.65625 1.394531 Z M 5.367188 2.25 C 5.472656 2.332031 5.476562 2.421875 5.476562 3.953125 C 5.476562 5.492188 5.472656 5.578125 5.367188 5.660156 C 5.214844 5.773438 5.046875 5.765625 4.910156 5.640625 C 4.8125 5.554688 4.804688 5.425781 4.804688 3.96875 C 4.804688 2.570312 4.816406 2.367188 4.90625 2.273438 C 5.015625 2.144531 5.210938 2.140625 5.367188 2.25 Z M 9.386719 2.265625 C 9.484375 2.355469 9.492188 2.484375 9.492188 3.945312 C 9.492188 5.335938 9.480469 5.542969 9.390625 5.636719 C 9.28125 5.765625 9.085938 5.773438 8.929688 5.660156 C 8.824219 5.578125 8.820312 5.484375 8.800781 3.992188 C 8.78125 2.460938 8.789062 2.402344 8.90625 2.285156 C 9.046875 2.144531 9.242188 2.132812 9.386719 2.265625 Z M 21.070312 2.25 C 21.175781 2.332031 21.179688 2.421875 21.179688 3.953125 C 21.179688 5.492188 21.175781 5.578125 21.070312 5.660156 C 20.917969 5.773438 20.75 5.765625 20.613281 5.640625 C 20.515625 5.554688 20.507812 5.425781 20.507812 3.96875 C 20.507812 2.570312 20.519531 2.367188 20.609375 2.273438 C 20.71875 2.144531 20.914062 2.140625 21.070312 2.25 Z M 25.089844 2.265625 C 25.1875 2.355469 25.195312 2.484375 25.195312 3.945312 C 25.195312 5.335938 25.183594 5.542969 25.09375 5.636719 C 24.984375 5.765625 24.789062 5.773438 24.632812 5.660156 C 24.527344 5.578125 24.523438 5.484375 24.503906 3.992188 C 24.484375 2.460938 24.492188 2.402344 24.609375 2.285156 C 24.75 2.144531 24.945312 2.132812 25.089844 2.265625 Z M 27.597656 18.222656 L 27.597656 27.546875 L 27.453125 27.6875 L 27.3125 27.832031 L 2.6875 27.832031 L 2.546875 27.6875 L 2.402344 27.546875 L 2.402344 8.90625 L 27.597656 8.90625 Z M 27.597656 18.222656 "/>
<path style=" stroke:none;fill-rule:nonzero;fill:rgb(255,255,255);fill-opacity:1;" d="M 3.71875 10.226562 L 3.574219 10.367188 L 3.574219 26.375 L 3.71875 26.515625 L 3.859375 26.660156 L 6.757812 26.660156 C 9.523438 26.660156 9.664062 26.65625 9.789062 26.546875 L 9.929688 26.4375 L 9.949219 24.289062 C 9.960938 22.628906 9.976562 22.140625 10.039062 22.171875 C 11.085938 22.640625 11.640625 22.769531 12.480469 22.71875 C 13.148438 22.675781 13.605469 22.558594 14.132812 22.289062 L 14.53125 22.09375 L 14.53125 25.78125 L 11.421875 25.78125 L 11.28125 25.929688 C 11.09375 26.109375 11.09375 26.332031 11.28125 26.515625 L 11.421875 26.660156 L 26.140625 26.660156 L 26.28125 26.515625 L 26.425781 26.375 L 26.425781 10.367188 L 26.28125 10.226562 L 26.140625 10.078125 L 3.859375 10.078125 Z M 9.082031 13.125 L 9.082031 15.292969 L 4.453125 15.292969 L 4.453125 10.957031 L 9.082031 10.957031 Z M 14.53125 12.796875 L 14.53125 14.640625 L 14.050781 14.414062 C 12.84375 13.851562 11.320312 13.886719 10.210938 14.5 L 9.960938 14.640625 L 9.960938 10.957031 L 14.53125 10.957031 Z M 20.039062 13.125 L 20.039062 15.292969 L 15.46875 15.292969 L 15.46875 10.957031 L 20.039062 10.957031 Z M 25.546875 13.125 L 25.546875 15.292969 L 20.917969 15.292969 L 20.917969 10.957031 L 25.546875 10.957031 Z M 13.09375 15 C 14.074219 15.25 14.917969 15.929688 15.339844 16.828125 C 15.617188 17.398438 15.703125 17.773438 15.703125 18.367188 C 15.703125 18.96875 15.617188 19.34375 15.339844 19.910156 C 14.917969 20.804688 14.074219 21.484375 13.09375 21.738281 C 12.273438 21.949219 11.5625 21.878906 10.78125 21.523438 C 9.617188 20.988281 8.847656 19.875 8.753906 18.574219 C 8.632812 16.960938 9.832031 15.359375 11.4375 14.964844 C 11.914062 14.851562 12.574219 14.867188 13.09375 15 Z M 8.261719 16.539062 C 7.976562 17.179688 7.886719 17.59375 7.886719 18.367188 C 7.886719 19.140625 7.976562 19.558594 8.261719 20.195312 L 8.429688 20.566406 L 4.453125 20.566406 L 4.453125 16.171875 L 8.429688 16.171875 Z M 20.039062 18.367188 L 20.039062 20.566406 L 18.039062 20.566406 C 16.464844 20.566406 16.046875 20.546875 16.070312 20.492188 C 16.488281 19.507812 16.582031 19.125 16.582031 18.367188 C 16.582031 17.613281 16.488281 17.234375 16.070312 16.242188 C 16.046875 16.1875 16.464844 16.171875 18.039062 16.171875 L 20.039062 16.171875 Z M 25.546875 18.367188 L 25.546875 20.566406 L 23.25 20.554688 L 20.945312 20.539062 L 20.929688 18.429688 C 20.921875 17.265625 20.929688 16.28125 20.945312 16.25 C 20.964844 16.1875 21.480469 16.171875 23.261719 16.171875 L 25.546875 16.171875 Z M 9.082031 23.613281 L 9.082031 25.78125 L 4.453125 25.78125 L 4.453125 21.445312 L 9.082031 21.445312 Z M 20.039062 23.613281 L 20.039062 25.78125 L 15.46875 25.78125 L 15.46875 21.445312 L 20.039062 21.445312 Z M 25.546875 23.613281 L 25.546875 25.78125 L 20.917969 25.78125 L 20.917969 21.445312 L 25.546875 21.445312 Z M 25.546875 23.613281 "/>
<path style=" stroke:none;fill-rule:nonzero;fill:rgb(255,255,255);fill-opacity:1;" d="M 22.609375 12.835938 C 22.464844 12.890625 22.324219 13.101562 22.324219 13.265625 C 22.324219 13.304688 22.375 13.414062 22.445312 13.5 C 22.5625 13.648438 22.582031 13.652344 23.261719 13.652344 C 23.90625 13.652344 23.96875 13.640625 24.082031 13.523438 C 24.296875 13.289062 24.210938 12.949219 23.898438 12.835938 C 23.679688 12.761719 22.820312 12.761719 22.609375 12.835938 Z M 22.609375 12.835938 "/>
<path style=" stroke:none;fill-rule:nonzero;fill:rgb(255,255,255);fill-opacity:1;" d="M 13.679688 17.472656 C 13.617188 17.507812 13.21875 17.828125 12.804688 18.1875 C 12.382812 18.546875 11.992188 18.875 11.9375 18.921875 C 11.84375 18.996094 11.78125 18.953125 11.34375 18.523438 C 10.796875 17.992188 10.648438 17.941406 10.398438 18.195312 C 10.125 18.460938 10.183594 18.585938 10.945312 19.347656 C 11.523438 19.933594 11.664062 20.039062 11.820312 20.039062 C 11.964844 20.039062 12.164062 19.898438 12.867188 19.300781 C 14.144531 18.210938 14.296875 18.058594 14.296875 17.835938 C 14.296875 17.703125 14.25 17.609375 14.144531 17.523438 C 13.96875 17.390625 13.851562 17.375 13.679688 17.472656 Z M 13.679688 17.472656 "/>
<path style=" stroke:none;fill-rule:nonzero;fill:rgb(255,255,255);fill-opacity:1;" d="M 17.074219 23.226562 C 16.792969 23.351562 16.722656 23.695312 16.933594 23.90625 C 17.039062 24.011719 17.125 24.023438 17.75 24.023438 C 18.433594 24.023438 18.453125 24.015625 18.570312 23.871094 C 18.640625 23.78125 18.691406 23.679688 18.691406 23.636719 C 18.691406 23.46875 18.546875 23.261719 18.382812 23.203125 C 18.132812 23.121094 17.289062 23.132812 17.074219 23.226562 Z M 17.074219 23.226562 "/>
</g>
</svg>
